<svg xmlns="http://www.w3.org/2000/svg" version="1.1" xmlns:xlink="http://www.w3.org/1999/xlink" width="200" height="200"><svg xmlns="http://www.w3.org/2000/svg" version="1.1" xmlns:xlink="http://www.w3.org/1999/xlink" width="200" height="200"><svg xmlns="http://www.w3.org/2000/svg" version="1.1" xmlns:xlink="http://www.w3.org/1999/xlink" viewBox="0 0 200 200"><rect width="200" height="200" fill="url('#gradient')"></rect><defs><linearGradient id="gradient" gradientTransform="rotate(47 0.5 0.5)"><stop offset="0%" stop-color="#2c3448"></stop><stop offset="100%" stop-color="#cdb891"></stop></linearGradient></defs><g><g fill="#ffffff" transform="matrix(5.403297911322829,0,0,5.403297911322829,22.215113112908128,138.421706549909)" stroke="#2c3448" stroke-width="0.1"><path d="M6.69-4.82L4.50-4.82L4.50 0L1.07 0L1.07-14.22L6.75-14.22Q8.38-14.22 9.63-13.62Q10.89-13.02 11.58-11.91Q12.27-10.80 12.27-9.39L12.27-9.39Q12.27-7.31 10.78-6.07Q9.29-4.82 6.69-4.82L6.69-4.82ZM4.50-11.57L4.50-7.47L6.75-7.47Q7.74-7.47 8.27-7.97Q8.79-8.47 8.79-9.38L8.79-9.38Q8.79-10.37 8.25-10.97Q7.71-11.56 6.79-11.57L6.79-11.57L4.50-11.57ZM12.03-3.19L12.03-3.19Q12.81-3.19 13.33-2.73Q13.85-2.27 13.85-1.54Q13.85-0.82 13.33-0.36Q12.81 0.11 12.03 0.11L12.03 0.11Q11.24 0.11 10.73-0.36Q10.21-0.83 10.21-1.54Q10.21-2.26 10.73-2.72Q11.24-3.19 12.03-3.19ZM24.29-4.81L27.70-4.81Q27.63-3.33 26.89-2.19Q26.16-1.05 24.84-0.43Q23.52 0.20 21.82 0.20L21.82 0.20Q19.01 0.20 17.40-1.63Q15.79-3.46 15.79-6.79L15.79-6.79L15.79-7.49Q15.79-9.58 16.52-11.15Q17.25-12.71 18.61-13.57Q19.98-14.42 21.78-14.42L21.78-14.42Q24.37-14.42 25.94-13.06Q27.51-11.70 27.72-9.31L27.72-9.31L24.31-9.31Q24.27-10.61 23.65-11.17Q23.04-11.74 21.78-11.74L21.78-11.74Q20.50-11.74 19.90-10.78Q19.31-9.82 19.28-7.72L19.28-7.72L19.28-6.72Q19.28-4.44 19.85-3.47Q20.42-2.49 21.82-2.49L21.82-2.49Q23.00-2.49 23.62-3.05Q24.25-3.60 24.29-4.81L24.29-4.81Z"></path></g></g></svg></svg><style>@media (prefers-color-scheme: light) { :root { filter: none; } }
@media (prefers-color-scheme: dark) { :root { filter: none; } }
</style></svg>